<svg baseProfile="full" height="159.0" version="1.1" width="500" xmlns="http://www.w3.org/2000/svg" xmlns:ev="http://www.w3.org/2001/xml-events" xmlns:xlink="http://www.w3.org/1999/xlink"><defs /><g transform="translate(0,110)"><line stroke="#000000" stroke-width="3" x1="0" x2="500" y1="0" y2="0" /><line stroke="#000000" stroke-width="2" x1="42" x2="42" y1="-5" y2="5" /><text fill="#C0C0C0" font-family="Serif" font-size="6pt" stroke="none" text-anchor="end" transform="rotate(180, 42, 0)" writing-mode="tb" x="42" y="-10">Jan. 2016</text><line stroke="#000000" stroke-width="2" x1="458" x2="458" y1="-5" y2="5" /><text fill="#C0C0C0" font-family="Serif" font-size="6pt" stroke="none" text-anchor="end" transform="rotate(180, 458, 0)" writing-mode="tb" x="458" y="-10">Jan. 2022</text><path d="M142,0 L142,-30 L132,-30" fill="none" stroke="#000000" stroke-width="1" /><text fill="#000000" font-family="Serif" font-size="6pt" stroke="none" text-anchor="end" x="129" y="-28.5">"Attention is All You Need" published.</text><text fill="#000000" font-family="Serif" font-size="6pt" stroke="none" text-anchor="end" transform="rotate(180, 142, 0)" writing-mode="tb" x="142" y="-10">Jun. 2017</text><circle cx="142" cy="0" fill="white" r="4" stroke="#000000" stroke-width="1" /><path d="M258,0 L258,-40 L248,-40" fill="none" stroke="#000000" stroke-width="1" /><text fill="#000000" font-family="Serif" font-size="6pt" stroke="none" text-anchor="end" x="245" y="-38.5">OpenAI announces GPT-2. (1.5B parameters)</text><text fill="#000000" font-family="Serif" font-size="6pt" stroke="none" text-anchor="end" transform="rotate(180, 258, 0)" writing-mode="tb" x="258" y="-10">Feb. 2019</text><circle cx="258" cy="0" fill="white" r="4" stroke="#000000" stroke-width="1" /><path d="M348,0 L348,-50 L338,-50" fill="none" stroke="#000000" stroke-width="1" /><text fill="#000000" font-family="Serif" font-size="6pt" stroke="none" text-anchor="end" x="335" y="-48.5">OpenAI publishes GPT-3 paper. (175B parameters)</text><text fill="#000000" font-family="Serif" font-size="6pt" stroke="none" text-anchor="end" transform="rotate(180, 348, 0)" writing-mode="tb" x="348" y="-10">May. 2020</text><circle cx="348" cy="0" fill="white" r="4" stroke="#000000" stroke-width="1" /><path d="M418,0 L418,-60 L408,-60" fill="none" stroke="#000000" stroke-width="1" /><text fill="#000000" font-family="Serif" font-size="6pt" stroke="none" text-anchor="end" x="405" y="-58.5">Aran Komatsuzaki publishes GPT-J weights and code. (6B parameters)</text><text fill="#000000" font-family="Serif" font-size="6pt" stroke="none" text-anchor="end" transform="rotate(180, 418, 0)" writing-mode="tb" x="418" y="-10">Jun. 2021</text><circle cx="418" cy="0" fill="white" r="4" stroke="#000000" stroke-width="1" /><path d="M434,0 L434,-70 L424,-70" fill="none" stroke="#000000" stroke-width="1" /><text fill="#000000" font-family="Serif" font-size="6pt" stroke="none" text-anchor="end" x="421" y="-68.5">We begin our work evaluating GPT-J</text><text fill="#000000" font-family="Serif" font-size="6pt" stroke="none" text-anchor="end" transform="rotate(180, 434, 0)" writing-mode="tb" x="434" y="-10">Aug. 2021</text><circle cx="434" cy="0" fill="white" r="4" stroke="#000000" stroke-width="1" /></g></svg>
